<?xml version="1.0" standalone="no"?>
<!DOCTYPE svg PUBLIC "-//W3C//DTD SVG 20010904//EN"
 "http://www.w3.org/TR/2001/REC-SVG-20010904/DTD/svg10.dtd">
<svg version="1.0" xmlns="http://www.w3.org/2000/svg"
 width="16.000000pt" height="16.000000pt" viewBox="0 0 16.000000 16.000000"
 preserveAspectRatio="xMidYMid meet">
<metadata>
Created by potrace 1.11, written by Peter Selinger 2001-2013
</metadata>
<g transform="translate(0.000000,16.000000) scale(0.002286,-0.002286)"
fill="#000000" stroke="none">
<path d="M3207 6924 c-1 -1 -45 -5 -97 -8 -52 -4 -111 -9 -131 -12 -20 -2 -54
-6 -75 -9 -223 -24 -502 -93 -769 -190 -115 -42 -402 -189 -518 -264 -235
-154 -393 -286 -617 -516 -352 -363 -608 -787 -772 -1280 -37 -110 -80 -264
-92 -325 -2 -14 -9 -45 -15 -70 -10 -45 -37 -212 -46 -285 -27 -227 -27 -767
0 -916 2 -9 6 -40 10 -70 3 -30 10 -76 15 -104 5 -27 12 -63 14 -79 37 -218
120 -494 219 -721 326 -752 957 -1388 1706 -1720 235 -104 576 -203 791 -230
30 -4 57 -8 60 -10 3 -2 35 -6 70 -10 36 -3 79 -8 95 -10 168 -22 664 -22 805
-1 14 2 52 7 85 10 33 4 71 8 85 11 14 2 41 6 60 9 19 3 60 10 90 17 30 6 73
15 96 19 68 14 221 59 290 85 368 138 641 353 852 670 l69 103 1 -381 c0 -210
1 -391 1 -402 1 -20 7 -20 703 -18 387 1 715 2 731 3 l27 0 0 3263 0 3264
-740 0 c-527 0 -740 -3 -743 -11 -1 -6 -3 -176 -2 -378 0 -203 -3 -368 -7
-368 -4 0 -22 21 -39 48 -124 181 -394 439 -549 523 -16 9 -35 21 -42 26 -47
38 -288 149 -418 193 -155 52 -424 110 -585 125 -33 3 -85 8 -115 11 -50 6
-498 13 -503 8z m499 -1513 c143 -20 254 -48 379 -95 425 -161 844 -560 1048
-996 75 -162 145 -401 162 -550 3 -30 8 -68 10 -85 6 -39 7 -354 1 -380 -2
-11 -7 -47 -10 -80 -4 -33 -9 -67 -11 -75 -2 -8 -7 -31 -10 -50 -28 -164 -118
-390 -226 -566 -177 -290 -478 -574 -771 -727 -158 -83 -382 -156 -528 -172
-36 -4 -74 -9 -85 -11 -30 -7 -313 -6 -370 1 -73 8 -160 24 -240 41 -38 9 -77
17 -85 19 -47 10 -229 79 -301 115 -94 47 -202 111 -207 123 -2 4 -8 7 -13 7
-20 0 -184 136 -284 236 -264 264 -456 611 -510 923 -3 19 -8 37 -10 40 -3 6
-15 86 -31 211 -15 125 -5 394 22 565 7 44 44 194 59 240 155 470 519 886 965
1102 86 42 160 73 160 68 0 -2 17 3 37 11 31 13 141 45 208 60 176 39 460 50
641 25z"/>
</g>
</svg>
