<?xml version="1.0" encoding="utf-8"?>
<!-- Generator: Adobe Illustrator 21.0.2, SVG Export Plug-In . SVG Version: 6.00 Build 0)  -->
<svg version="1.1" id="Vrstva_1" xmlns="http://www.w3.org/2000/svg" xmlns:xlink="http://www.w3.org/1999/xlink" x="0px" y="0px"
	 viewBox="0 0 361 61.8" style="enable-background:new 0 0 361 61.8;" xml:space="preserve">
<style type="text/css">
	.st0{fill:#FFFFFF;}
</style>
<g>
	<path class="st0" d="M38,60.5v-5.6c-1.3,2.3-3.1,3.9-5.4,5c-2.3,1.1-5.3,1.6-8.9,1.6c-6.8,0-12.4-2.3-16.9-6.9
		C2.3,50,0,44.3,0,37.4c0-3.2,0.6-6.3,1.7-9.1c1.1-2.9,2.8-5.4,4.9-7.6c2.3-2.4,4.8-4.2,7.6-5.3c2.8-1.1,5.9-1.7,9.4-1.7
		c3.3,0,6.2,0.6,8.6,1.7c2.4,1.1,4.3,2.8,5.8,5v-5.4h10.4v45.6H38z M10.9,37.2c0,3.8,1.3,7.1,3.8,9.7c2.6,2.6,5.7,3.9,9.4,3.9
		c3.4,0,6.3-1.3,8.9-3.9c2.6-2.6,3.8-5.6,3.8-9.1c0-3.7-1.3-6.9-3.8-9.6s-5.6-4-9-4c-3.6,0-6.7,1.3-9.2,3.8
		C12.2,30.5,10.9,33.6,10.9,37.2z"/>
	<path class="st0" d="M78.9,24c-4.1,0.3-7,1.4-8.7,3.2c-1.6,1.8-2.5,5.1-2.5,9.9v23.3H57.1V14.9h10v5.2c1.6-2.1,3.4-3.6,5.3-4.5
		c1.9-1,4.1-1.4,6.5-1.4V24z"/>
	<path class="st0" d="M115.8,31.1c-1.3-2.4-2.9-4.2-4.9-5.3c-2-1.2-4.3-1.8-7-1.8c-3.6,0-6.6,1.3-9,3.9c-2.4,2.6-3.6,5.9-3.6,9.8
		c0,3.9,1.2,7.1,3.7,9.7c2.5,2.6,5.6,3.9,9.3,3.9c2.9,0,5.2-0.6,7.1-1.8c1.9-1.2,3.3-3.1,4.3-5.5h11.4c-1.4,5.6-4.1,9.9-8.1,13.1
		c-4,3.2-8.9,4.8-14.6,4.8c-3.4,0-6.5-0.6-9.4-1.8c-2.9-1.2-5.5-3-7.8-5.3c-2.2-2.2-3.8-4.8-5.1-7.8c-1.2-3-1.8-6-1.8-9.1
		c0-3.2,0.6-6.2,1.7-9c1.1-2.8,2.7-5.3,4.9-7.6c2.4-2.5,5.1-4.4,8.1-5.7c3-1.3,6.2-2,9.6-2c5.6,0,10.4,1.6,14.5,4.8
		c4.1,3.2,6.8,7.5,8.1,12.8H115.8z"/>
	<path class="st0" d="M145,0v20c1.5-2.1,3.3-3.6,5.3-4.6c2-1,4.3-1.5,6.9-1.5c5.7,0,10.1,1.8,13.1,5.3s4.6,8.5,4.6,15.1v26.2h-10.6
		V40.3c0-6.3-0.7-10.5-2.1-12.7c-1.4-2.2-3.8-3.3-7.3-3.3c-3.5,0-6.1,1.3-7.6,3.8c-1.5,2.5-2.3,6.8-2.3,12.9v19.6h-10.3V0H145z"/>
	<path class="st0" d="M194.6,10.3h-10.4V0.1h10.4V10.3z M184.2,60.5V14.9h10.4v45.6H184.2z"/>
	<path class="st0" d="M241.6,49.1l11.1-34.2h6.2l-15.4,45.6h-3.9l-10.7-34.8l-10.5,34.8h-3.9l-15.4-45.6h6.1l11.2,34.2l10.5-34.2
		h4.3L241.6,49.1z"/>
	<path class="st0" d="M307.9,39.6h-41.1c0.4,4.9,2.1,8.9,5.4,11.9c3.2,3,7.3,4.6,12.1,4.6c3.4,0,6.5-0.9,9.2-2.6
		c2.7-1.8,4.8-4.2,6.3-7.4h6.6c-2.1,5-5.1,8.9-8.8,11.6c-3.8,2.7-8.2,4-13.2,4c-6.6,0-12.2-2.4-16.8-7.1c-4.6-4.7-6.9-10.4-6.9-17
		c0-6.9,2.2-12.7,6.7-17.2c4.5-4.5,10.2-6.8,17.2-6.8c6.9,0,12.5,2.4,16.8,7.1c4.3,4.7,6.5,10.9,6.5,18.5V39.6z M301.4,34.5
		c-1.1-5.1-3.1-8.9-6.1-11.5c-3-2.6-6.8-3.9-11.5-3.9c-4.4,0-8.2,1.4-11.2,4.2c-3.1,2.8-4.9,6.5-5.6,11.2H301.4z"/>
	<path class="st0" d="M320.1,0v19.2v3.4c2.5-3,5.2-5.2,8.1-6.6c2.9-1.4,6.2-2.1,9.8-2.1c6.4,0,11.8,2.3,16.3,6.9
		c4.4,4.6,6.7,10.2,6.7,16.9c0,6.8-2.3,12.6-6.8,17.2c-4.5,4.6-10.2,6.9-17.1,6.9c-3.4,0-6.5-0.7-9.3-2c-2.8-1.4-5.4-3.4-7.7-6.1
		v6.9h-5.8V0H320.1z M320.1,38.2c0,4.9,1.7,9.1,5.2,12.7c3.4,3.6,7.4,5.4,11.9,5.4c4.9,0,9.1-1.8,12.5-5.4c3.4-3.6,5.2-8.1,5.2-13.4
		c0-5-1.7-9.3-5.1-12.8c-3.4-3.5-7.5-5.2-12.3-5.2c-4.8,0-8.9,1.8-12.2,5.5C321.8,28.5,320.1,32.9,320.1,38.2z"/>
</g>
</svg>
